<?xml version="1.0"?>
<svg xmlns="http://www.w3.org/2000/svg" xmlns:xlink="http://www.w3.org/1999/xlink" version="1.1" id="Capa_1" x="0px" y="0px" viewBox="0 0 483.4 483.4" style="enable-background:new 0 0 483.4 483.4;" xml:space="preserve" width="512px" height="512px" class=""><g><g>
	<g>
		<path d="M135.6,277.062H93.7c-5,0-9,4-9,9v17.4v76.6v17.4c0,5,4,9,9,9h41.9c5,0,9-4,9-9v-17.4v-76.6v-17.4    C144.7,281.062,140.6,277.062,135.6,277.062z" data-original="#000000" class="active-path" data-old_color="#42ADE0" fill="#42AEE1"/>
		<path d="M220.3,226.963h-41.9c-5,0-9,4-9,9v67.5v26.4v67.5c0,5,4,9,9,9h41.9c5,0,9-4,9-9v-67.5v-26.4v-67.5    C229.3,230.963,225.3,226.963,220.3,226.963z" data-original="#000000" class="active-path" data-old_color="#42ADE0" fill="#42AEE1"/>
		<path d="M314,253.663v-74.6h29c5.3,0,8.6-5.9,5.8-10.4l-59-94.7c-2.7-4.3-8.9-4.3-11.6,0l-59,94.7c-2.8,4.5,0.4,10.4,5.8,10.4h29    v218.4c0,5,4,9,9,9h41.9c5,0,9-4,9-9c-16.8-19.3-27.1-44.4-27.1-72C287,298.062,297.2,272.863,314,253.663z" data-original="#000000" class="active-path" data-old_color="#42ADE0" fill="#42AEE1"/>
		<path d="M396.4,238.663c-48,0-87,38.9-87,87c0,48,38.9,87,87,87c48,0,87-38.9,87-87S444.5,238.663,396.4,238.663z M421.4,359.863    c-3.8,4.6-8.7,7.7-14.5,9.3c-2.5,0.7-3.6,2-3.5,4.6s0,5.1,0,7.7c0,2.3-1.2,3.5-3.4,3.6c-2.8,0.1-5.5,0.1-8.3,0    c-2.4,0-3.6-1.4-3.6-3.8c0-1.9,0-3.8-0.1-5.6c0-4.1-0.2-4.3-4.2-4.9c-5.1-0.8-10.1-2-14.8-4.2c-3.7-1.8-4-2.7-3-6.5    c0.8-2.9,1.6-5.7,2.5-8.5c1-3.3,1.9-3.7,4.9-2.1c5.2,2.7,10.6,4.2,16.4,4.9c3.7,0.5,7.3,0.1,10.7-1.4c6.4-2.8,7.4-10.2,2-14.7    c-1.8-1.5-3.9-2.6-6.1-3.6c-5.6-2.5-11.5-4.3-16.7-7.5c-8.6-5.1-14-12.2-13.4-22.7c0.7-11.8,7.4-19.2,18.2-23.1    c4.5-1.6,4.5-1.6,4.5-6.2c0-1.6,0-3.2,0-4.7c0.1-3.5,0.7-4.1,4.2-4.2c1.1,0,2.2,0,3.3,0c7.5,0,7.5,0,7.5,7.5c0,5.3,0,5.3,5.3,6.1    c4,0.6,7.9,1.8,11.6,3.5c2.1,0.9,2.8,2.3,2.2,4.5c-0.9,3.2-1.8,6.5-2.8,9.7c-1,3-1.9,3.5-4.8,2.1c-5.8-2.8-11.9-4-18.4-3.6    c-1.7,0.1-3.3,0.3-4.9,1c-5.6,2.4-6.5,8.6-1.7,12.4c2.4,1.9,5.1,3.3,8,4.5c4.9,2,9.9,4,14.6,6.6    C427.9,328.363,431.9,347.163,421.4,359.863z" data-original="#000000" class="active-path" data-old_color="#42ADE0" fill="#42AEE1"/>
		<path d="M50.9,337.562H9c-5,0-9,4-9,9v1.7v15.7v16.1v6v11.4c0,5,4,9,9,9h41.9c5,0,9-4,9-9v-11.4v-6v-16.1v-13.5v-3.9    C60,341.562,55.9,337.562,50.9,337.562z" data-original="#000000" class="active-path" data-old_color="#42ADE0" fill="#42AEE1"/>
	</g>
</g></g> </svg>
